<svg width="24" height="24" viewBox="0 0 24 24" fill="none" xmlns="http://www.w3.org/2000/svg">
<path d="M0.0633831 8.78221L2.05606 0.874364C2.20784 0.340745 2.6191 0 3.02547 0H17.5177C17.9779 0 18.3353 0.334315 18.4871 0.874364L20.3084 8.11358H21.4981C22.8739 8.11358 24 9.58586 24 11.3989V19.506C24 20.2454 23.5398 20.8497 22.9767 20.8497H20.1419C19.7454 22.6692 18.4724 24 16.9546 24C15.4173 24 14.1296 22.637 13.7526 20.7854H10.2079C9.82604 22.6435 8.54328 24 7.00593 24C5.46858 24 4.18093 22.637 3.80394 20.7854H1.03279C0.469751 20.7854 0.00952721 20.1811 0.00952721 19.5125V9.70801C-0.0149536 9.60514 0.00952721 8.98152 0.0633831 8.78221ZM2.40858 8.11358H9.24831V2.61666H3.78436L2.40858 8.11358ZM16.8029 2.61666H11.2899V8.11358H18.1835L16.8029 2.61666ZM16.9546 21.3833C17.6695 21.3833 18.2815 20.5797 18.2815 19.641C18.2815 18.7024 17.6695 17.8987 16.9546 17.8987C16.2398 17.8987 15.6278 18.7024 15.6278 19.641C15.6278 20.5797 16.2447 21.3833 16.9546 21.3833ZM7.00593 21.3833C7.72075 21.3833 8.33275 20.5797 8.33275 19.641C8.33275 18.7024 7.72075 17.8987 7.00593 17.8987C6.24215 17.8987 5.67911 18.7024 5.67911 19.641C5.67422 20.5797 6.29111 21.3833 7.00593 21.3833ZM2.0022 18.098H3.90186C4.37188 16.4522 5.58119 15.2821 7.00593 15.2821C8.43067 15.2821 9.63999 16.4522 10.11 18.098H13.8555C14.3255 16.4522 15.5348 15.2821 16.9595 15.2821C18.4039 15.2821 19.623 16.4779 20.0832 18.1623H22.0122V11.3924C22.0122 10.9874 21.7576 10.7238 21.503 10.7238H19.5642H2.0071V18.098H2.0022Z" fill="black"/>
</svg>
