<svg width="21" height="20" viewBox="0 0 21 20" fill="none" xmlns="http://www.w3.org/2000/svg">
<path d="M19.3 10.2083C19.3 9.55834 19.2417 8.93334 19.1333 8.33334H10.5V11.8792H15.4333C15.2208 13.025 14.575 13.9958 13.6042 14.6458V16.9458H16.5667C18.3 15.35 19.3 13 19.3 10.2083Z" fill="#4285F4"/>
<path d="M10.5 19.1667C12.975 19.1667 15.05 18.3458 16.5667 16.9458L13.6042 14.6458C12.7833 15.1958 11.7333 15.5208 10.5 15.5208C8.11252 15.5208 6.09168 13.9083 5.37085 11.7417H2.30835V14.1167C3.81668 17.1125 6.91668 19.1667 10.5 19.1667Z" fill="#34A853"/>
<path d="M5.37075 11.7417C5.18742 11.1917 5.08325 10.6042 5.08325 10C5.08325 9.39583 5.18742 8.80833 5.37075 8.25833V5.88333H2.30825C1.66659 7.16071 1.33269 8.57051 1.33325 10C1.33325 11.4792 1.68742 12.8792 2.30825 14.1167L5.37075 11.7417Z" fill="#FBBC05"/>
<path d="M10.5 4.47918C11.8458 4.47918 13.0542 4.94168 14.0042 5.85001L16.6333 3.22084C15.0458 1.74168 12.9708 0.833344 10.5 0.833344C6.91668 0.833344 3.81668 2.88751 2.30835 5.88334L5.37085 8.25834C6.09168 6.09168 8.11252 4.47918 10.5 4.47918Z" fill="#EA4335"/>
</svg>
