<svg width="170" height="28" viewBox="0 0 170 28" fill="none" xmlns="http://www.w3.org/2000/svg">
<path d="M15.072 6.16V9.352H9.912V22H5.784V9.352H0.6V6.16H15.072ZM15.6203 22V10H19.2203L19.3883 12.592C19.6923 11.696 20.1403 11 20.7323 10.504C21.3403 10.008 22.1083 9.76 23.0363 9.76C23.3403 9.76 23.5963 9.784 23.8043 9.832C24.0283 9.88 24.2043 9.944 24.3323 10.024L23.9243 13.384C23.7643 13.32 23.5563 13.272 23.3003 13.24C23.0603 13.192 22.7643 13.168 22.4123 13.168C21.9323 13.168 21.4843 13.272 21.0683 13.48C20.6523 13.688 20.3163 14 20.0603 14.416C19.8203 14.816 19.7003 15.328 19.7003 15.952V22H15.6203ZM32.5116 14.392C32.5116 13.832 32.3516 13.392 32.0316 13.072C31.7276 12.736 31.3116 12.568 30.7836 12.568C30.2556 12.568 29.7996 12.704 29.4156 12.976C29.0476 13.232 28.7916 13.696 28.6476 14.368L25.1916 13.552C25.4156 12.4 26.0076 11.48 26.9676 10.792C27.9276 10.104 29.2796 9.76 31.0236 9.76C32.1916 9.76 33.1836 9.936 33.9996 10.288C34.8316 10.624 35.4636 11.136 35.8956 11.824C36.3436 12.496 36.5676 13.328 36.5676 14.32V18.712C36.5676 19.336 36.8476 19.648 37.4076 19.648C37.6956 19.648 37.9276 19.616 38.1036 19.552L37.8636 21.88C37.3836 22.104 36.7996 22.216 36.1116 22.216C35.4876 22.216 34.9356 22.12 34.4556 21.928C33.9756 21.72 33.5996 21.416 33.3276 21.016C33.0556 20.6 32.9196 20.08 32.9196 19.456V19.312L33.3756 19.144C33.3756 19.832 33.1676 20.408 32.7516 20.872C32.3516 21.336 31.8236 21.68 31.1676 21.904C30.5276 22.128 29.8556 22.24 29.1516 22.24C28.3356 22.24 27.6236 22.112 27.0156 21.856C26.4076 21.6 25.9356 21.232 25.5996 20.752C25.2796 20.256 25.1196 19.648 25.1196 18.928C25.1196 18.064 25.3756 17.352 25.8876 16.792C26.4156 16.216 27.2396 15.816 28.3596 15.592L32.8956 14.656L32.8716 16.816L30.5676 17.296C30.0876 17.392 29.7276 17.536 29.4876 17.728C29.2636 17.904 29.1516 18.176 29.1516 18.544C29.1516 18.896 29.2796 19.16 29.5356 19.336C29.7916 19.512 30.0956 19.6 30.4476 19.6C30.7196 19.6 30.9756 19.56 31.2156 19.48C31.4716 19.4 31.6956 19.28 31.8876 19.12C32.0796 18.944 32.2316 18.728 32.3436 18.472C32.4556 18.216 32.5116 17.912 32.5116 17.56V14.392ZM39.714 22V10H43.362L43.578 14.128L43.122 13.672C43.282 12.808 43.562 12.088 43.962 11.512C44.378 10.936 44.89 10.504 45.498 10.216C46.122 9.912 46.818 9.76 47.586 9.76C48.418 9.76 49.138 9.92 49.746 10.24C50.37 10.56 50.858 11.032 51.21 11.656C51.562 12.28 51.738 13.064 51.738 14.008V22H47.658V15.088C47.658 14.256 47.498 13.68 47.178 13.36C46.858 13.04 46.45 12.88 45.954 12.88C45.57 12.88 45.21 12.976 44.874 13.168C44.538 13.344 44.274 13.632 44.082 14.032C43.89 14.432 43.794 14.968 43.794 15.64V22H39.714ZM59.6368 22.24C58.4368 22.24 57.3168 22.048 56.2768 21.664C55.2528 21.264 54.4048 20.696 53.7328 19.96L55.6528 17.704C56.0528 18.216 56.5808 18.648 57.2368 19C57.9088 19.336 58.6528 19.504 59.4688 19.504C59.9648 19.504 60.3728 19.432 60.6928 19.288C61.0128 19.144 61.1728 18.92 61.1728 18.616C61.1728 18.392 61.0928 18.216 60.9328 18.088C60.7728 17.944 60.4528 17.824 59.9728 17.728L58.2928 17.392C56.7888 17.088 55.7168 16.64 55.0768 16.048C54.4528 15.44 54.1408 14.648 54.1408 13.672C54.1408 13.016 54.3408 12.392 54.7408 11.8C55.1408 11.192 55.7568 10.704 56.5888 10.336C57.4208 9.952 58.4848 9.76 59.7808 9.76C60.9968 9.76 62.0688 9.936 62.9968 10.288C63.9248 10.64 64.6608 11.152 65.2048 11.824L63.2608 14.032C62.8768 13.552 62.3808 13.176 61.7728 12.904C61.1648 12.632 60.5568 12.496 59.9488 12.496C59.5648 12.496 59.2368 12.536 58.9648 12.616C58.7088 12.68 58.5168 12.776 58.3888 12.904C58.2608 13.032 58.1968 13.192 58.1968 13.384C58.1968 13.592 58.2928 13.776 58.4848 13.936C58.6928 14.08 59.0688 14.208 59.6128 14.32L61.7968 14.752C63.0288 14.976 63.9168 15.384 64.4608 15.976C65.0048 16.568 65.2768 17.28 65.2768 18.112C65.2768 18.896 65.0688 19.6 64.6528 20.224C64.2368 20.848 63.6128 21.344 62.7808 21.712C61.9488 22.064 60.9008 22.24 59.6368 22.24ZM67.3937 27.04V10H71.0657L71.2817 14.344L70.8017 13.84C70.9137 13.04 71.1617 12.336 71.5457 11.728C71.9297 11.12 72.4257 10.64 73.0337 10.288C73.6417 9.936 74.3377 9.76 75.1217 9.76C76.1137 9.76 76.9777 10.008 77.7137 10.504C78.4497 10.984 79.0177 11.688 79.4177 12.616C79.8337 13.528 80.0417 14.64 80.0417 15.952C80.0417 17.264 79.8337 18.392 79.4177 19.336C79.0017 20.28 78.4177 21 77.6657 21.496C76.9297 21.992 76.0657 22.24 75.0737 22.24C73.9857 22.24 73.1057 21.92 72.4337 21.28C71.7617 20.624 71.3137 19.8 71.0897 18.808L71.4737 18.232V27.04H67.3937ZM73.6817 19.24C74.3857 19.24 74.9377 18.984 75.3377 18.472C75.7377 17.944 75.9377 17.12 75.9377 16C75.9377 14.88 75.7377 14.064 75.3377 13.552C74.9537 13.024 74.4097 12.76 73.7057 12.76C73.2577 12.76 72.8657 12.888 72.5297 13.144C72.1937 13.384 71.9297 13.744 71.7377 14.224C71.5617 14.704 71.4737 15.296 71.4737 16C71.4737 16.672 71.5537 17.256 71.7137 17.752C71.8897 18.232 72.1457 18.6 72.4817 18.856C72.8177 19.112 73.2177 19.24 73.6817 19.24ZM103.042 22V10H106.642L106.81 12.592C107.114 11.696 107.562 11 108.154 10.504C108.762 10.008 109.53 9.76 110.458 9.76C110.762 9.76 111.018 9.784 111.226 9.832C111.45 9.88 111.626 9.944 111.754 10.024L111.346 13.384C111.186 13.32 110.978 13.272 110.722 13.24C110.482 13.192 110.186 13.168 109.834 13.168C109.354 13.168 108.906 13.272 108.49 13.48C108.074 13.688 107.738 14 107.482 14.416C107.242 14.816 107.122 15.328 107.122 15.952V22H103.042ZM118.066 6.184V17.728C118.066 18.304 118.202 18.72 118.474 18.976C118.762 19.216 119.154 19.336 119.65 19.336C120.034 19.336 120.362 19.296 120.634 19.216C120.922 19.12 121.178 18.984 121.402 18.808L121.834 21.328C121.434 21.616 120.93 21.84 120.322 22C119.714 22.16 119.09 22.24 118.45 22.24C117.538 22.24 116.746 22.112 116.074 21.856C115.418 21.6 114.906 21.192 114.538 20.632C114.186 20.072 114.002 19.328 113.986 18.4V7.312L118.066 6.184ZM121.642 10V12.904H111.922V10H121.642ZM136.25 22.24C134.922 22.24 133.77 21.992 132.794 21.496C131.834 21 131.09 20.288 130.562 19.36C130.034 18.432 129.77 17.312 129.77 16C129.77 14.688 130.034 13.568 130.562 12.64C131.09 11.712 131.826 11 132.77 10.504C133.73 10.008 134.826 9.76 136.058 9.76C137.322 9.76 138.394 10.008 139.274 10.504C140.17 10.984 140.85 11.656 141.314 12.52C141.778 13.368 142.01 14.344 142.01 15.448C142.01 15.736 142.002 16.024 141.986 16.312C141.97 16.6 141.946 16.84 141.914 17.032H132.41V14.848H140.114L138.17 15.592C138.17 14.632 137.994 13.896 137.642 13.384C137.306 12.872 136.778 12.616 136.058 12.616C135.546 12.616 135.106 12.736 134.738 12.976C134.386 13.216 134.114 13.592 133.922 14.104C133.746 14.616 133.658 15.272 133.658 16.072C133.658 16.856 133.762 17.496 133.97 17.992C134.178 18.472 134.474 18.824 134.858 19.048C135.242 19.256 135.706 19.36 136.25 19.36C136.858 19.36 137.338 19.24 137.69 19C138.058 18.76 138.33 18.424 138.506 17.992L141.77 19.072C141.546 19.76 141.154 20.344 140.594 20.824C140.05 21.288 139.394 21.64 138.626 21.88C137.874 22.12 137.082 22.24 136.25 22.24ZM155.942 10L151.574 22C151.126 23.264 150.638 24.272 150.11 25.024C149.582 25.776 148.958 26.32 148.238 26.656C147.518 26.992 146.654 27.16 145.646 27.16C144.974 27.16 144.358 27.088 143.798 26.944C143.238 26.8 142.75 26.6 142.334 26.344L143.15 23.584C143.438 23.792 143.742 23.936 144.062 24.016C144.382 24.112 144.79 24.16 145.286 24.16C145.75 24.16 146.126 24.08 146.414 23.92C146.718 23.76 146.958 23.456 147.134 23.008L147.446 22.264L146.054 19L142.454 10H146.942L148.79 16.84L149.366 19.384L150.038 16.744L151.886 10H155.942ZM163.039 22.24C161.711 22.24 160.559 21.992 159.583 21.496C158.623 21 157.879 20.288 157.351 19.36C156.823 18.432 156.559 17.312 156.559 16C156.559 14.688 156.823 13.568 157.351 12.64C157.879 11.712 158.615 11 159.559 10.504C160.519 10.008 161.615 9.76 162.847 9.76C164.111 9.76 165.183 10.008 166.063 10.504C166.959 10.984 167.639 11.656 168.103 12.52C168.567 13.368 168.799 14.344 168.799 15.448C168.799 15.736 168.791 16.024 168.775 16.312C168.759 16.6 168.735 16.84 168.703 17.032H159.199V14.848H166.903L164.959 15.592C164.959 14.632 164.783 13.896 164.431 13.384C164.095 12.872 163.567 12.616 162.847 12.616C162.335 12.616 161.895 12.736 161.527 12.976C161.175 13.216 160.903 13.592 160.711 14.104C160.535 14.616 160.447 15.272 160.447 16.072C160.447 16.856 160.551 17.496 160.759 17.992C160.967 18.472 161.263 18.824 161.647 19.048C162.031 19.256 162.495 19.36 163.039 19.36C163.647 19.36 164.127 19.24 164.479 19C164.847 18.76 165.119 18.424 165.295 17.992L168.559 19.072C168.335 19.76 167.943 20.344 167.383 20.824C166.839 21.288 166.183 21.64 165.415 21.88C164.663 22.12 163.871 22.24 163.039 22.24Z" fill="black"/>
<g clip-path="url(#clip0_108_254)">
<mask id="mask0_108_254" style="mask-type:luminance" maskUnits="userSpaceOnUse" x="79" y="6" width="25" height="20">
<mask id="mask1_108_254" style="mask-type:alpha" maskUnits="userSpaceOnUse" x="79" y="6" width="25" height="20">
<rect x="79" y="6" width="25" height="20" fill="white"/>
</mask>
<g mask="url(#mask1_108_254)">
<path d="M91.5029 19.1475C92.6335 19.1475 93.5936 18.8413 94.3834 18.2289C95.1732 17.6166 95.568 16.873 95.568 15.9982C95.568 15.1234 95.1724 14.3804 94.381 13.7693C93.5896 13.1582 92.6286 12.8526 91.498 12.8526C90.3675 12.8526 89.4073 13.1588 88.6175 13.7712C87.8278 14.3836 87.4329 15.1272 87.4329 16.002C87.4329 16.8767 87.8286 17.6197 88.62 18.2308C89.4114 18.8419 90.3724 19.1475 91.5029 19.1475ZM91.5005 18.0001C90.7825 18.0001 90.1722 17.8056 89.6696 17.4167C89.1671 17.0278 88.9158 16.5556 88.9158 16.0001C88.9158 15.4445 89.1671 14.9723 89.6696 14.5834C90.1722 14.1945 90.7825 14.0001 91.5005 14.0001C92.2184 14.0001 92.8287 14.1945 93.3313 14.5834C93.8339 14.9723 94.0852 15.4445 94.0852 16.0001C94.0852 16.5556 93.8339 17.0278 93.3313 17.4167C92.8287 17.8056 92.2184 18.0001 91.5005 18.0001ZM91.5019 21.5834C89.0864 21.5834 86.8855 21.0756 84.8992 20.0601C82.9129 19.0447 81.4295 17.6913 80.4492 16.0001C81.4295 14.3088 82.9124 12.9555 84.8977 11.94C86.8831 10.9245 89.0835 10.4167 91.499 10.4167C93.9145 10.4167 96.1154 10.9245 98.1017 11.94C100.088 12.9555 101.571 14.3088 102.552 16.0001C101.571 17.6913 100.089 19.0447 98.1032 20.0601C96.1179 21.0756 93.9175 21.5834 91.5019 21.5834ZM91.5005 20.5001C93.5108 20.5001 95.3686 20.0973 97.0737 19.2917C98.7789 18.4862 100.089 17.3889 101.005 16.0001C100.089 14.6112 98.7789 13.514 97.0737 12.7084C95.3686 11.9028 93.5108 11.5001 91.5005 11.5001C89.4901 11.5001 87.6324 11.9028 85.9272 12.7084C84.222 13.514 82.9117 14.6112 81.9963 16.0001C82.9117 17.3889 84.222 18.4862 85.9272 19.2917C87.6324 20.0973 89.4901 20.5001 91.5005 20.5001Z" fill="white"/>
</g>
</mask>
<g mask="url(#mask0_108_254)">
<rect x="79" y="6" width="25" height="20" fill="black"/>
</g>
</g>
<defs>
<clipPath id="clip0_108_254">
<rect width="25" height="20" fill="white" transform="translate(79 6)"/>
</clipPath>
</defs>
</svg>
